<mxfile host="app.diagrams.net" agent="Mozilla/5.0 (Windows NT 10.0; Win64; x64) AppleWebKit/537.36 (KHTML, like Gecko) Chrome/128.0.0.0 Safari/537.36" version="24.7.16">
  <diagram name="Page-1" id="aaucLalctq3g4cHIX7zM">
    <mxGraphModel dx="2064" dy="1002" grid="1" gridSize="10" guides="1" tooltips="1" connect="1" arrows="1" fold="1" page="1" pageScale="1" pageWidth="1169" pageHeight="827" math="0" shadow="0">
      <root>
        <mxCell id="0" />
        <mxCell id="1" parent="0" />
        <mxCell id="uq58R6Lj1lEwLzRMBfiw-10" style="edgeStyle=orthogonalEdgeStyle;rounded=0;orthogonalLoop=1;jettySize=auto;html=1;exitX=0.5;exitY=1;exitDx=0;exitDy=0;" edge="1" parent="1" source="uq58R6Lj1lEwLzRMBfiw-1">
          <mxGeometry relative="1" as="geometry">
            <mxPoint x="535" y="144" as="targetPoint" />
          </mxGeometry>
        </mxCell>
        <mxCell id="uq58R6Lj1lEwLzRMBfiw-1" value="&lt;b&gt;&lt;font style=&quot;font-size: 15px;&quot;&gt;Study Area&lt;/font&gt;&lt;/b&gt;" style="rounded=1;whiteSpace=wrap;html=1;fillColor=#f5f5f5;strokeColor=#666666;gradientColor=#b3b3b3;" vertex="1" parent="1">
          <mxGeometry x="390" y="54" width="290" height="40" as="geometry" />
        </mxCell>
        <mxCell id="uq58R6Lj1lEwLzRMBfiw-8" style="edgeStyle=orthogonalEdgeStyle;rounded=0;orthogonalLoop=1;jettySize=auto;html=1;exitX=0.5;exitY=1;exitDx=0;exitDy=0;" edge="1" parent="1" source="uq58R6Lj1lEwLzRMBfiw-3" target="uq58R6Lj1lEwLzRMBfiw-4">
          <mxGeometry relative="1" as="geometry" />
        </mxCell>
        <mxCell id="uq58R6Lj1lEwLzRMBfiw-3" value="&lt;b&gt;&lt;font style=&quot;font-size: 15px;&quot;&gt;&lt;u&gt;Landsat Images&lt;/u&gt;&lt;/font&gt;&lt;/b&gt;&lt;div&gt;&lt;b&gt;&lt;font style=&quot;font-size: 15px;&quot;&gt;(1984 TM, 2004 ETM+, 2014 ETM+, and 2024 OLI)&lt;/font&gt;&lt;/b&gt;&lt;/div&gt;" style="rounded=1;whiteSpace=wrap;html=1;fillColor=#f5f5f5;gradientColor=#b3b3b3;strokeColor=#666666;" vertex="1" parent="1">
          <mxGeometry x="390" y="144" width="300" height="60" as="geometry" />
        </mxCell>
        <mxCell id="uq58R6Lj1lEwLzRMBfiw-24" style="edgeStyle=orthogonalEdgeStyle;rounded=0;orthogonalLoop=1;jettySize=auto;html=1;exitX=0.5;exitY=1;exitDx=0;exitDy=0;" edge="1" parent="1" source="uq58R6Lj1lEwLzRMBfiw-4" target="uq58R6Lj1lEwLzRMBfiw-22">
          <mxGeometry relative="1" as="geometry" />
        </mxCell>
        <mxCell id="uq58R6Lj1lEwLzRMBfiw-4" value="&lt;b&gt;&lt;font style=&quot;font-size: 15px;&quot;&gt;&lt;u&gt;Image classification&lt;/u&gt;&lt;/font&gt;&lt;/b&gt;&lt;div&gt;&lt;span style=&quot;font-size: 15px;&quot;&gt;&lt;b&gt;Supervised classification&amp;nbsp;&lt;/b&gt;&lt;/span&gt;&lt;/div&gt;&lt;div&gt;&lt;span style=&quot;font-size: 15px;&quot;&gt;&lt;b&gt;(Maximum likelihood)&lt;/b&gt;&lt;/span&gt;&lt;/div&gt;" style="rounded=1;whiteSpace=wrap;html=1;fillColor=#f5f5f5;gradientColor=#b3b3b3;strokeColor=#666666;" vertex="1" parent="1">
          <mxGeometry x="390" y="264" width="300" height="90" as="geometry" />
        </mxCell>
        <mxCell id="uq58R6Lj1lEwLzRMBfiw-19" style="edgeStyle=orthogonalEdgeStyle;rounded=0;orthogonalLoop=1;jettySize=auto;html=1;exitX=1;exitY=0.5;exitDx=0;exitDy=0;entryX=0;entryY=0.5;entryDx=0;entryDy=0;" edge="1" parent="1" source="uq58R6Lj1lEwLzRMBfiw-5" target="uq58R6Lj1lEwLzRMBfiw-4">
          <mxGeometry relative="1" as="geometry" />
        </mxCell>
        <mxCell id="uq58R6Lj1lEwLzRMBfiw-5" value="&lt;b&gt;&lt;font style=&quot;font-size: 15px;&quot;&gt;&lt;u&gt;Image Pre-processing&lt;/u&gt;&lt;/font&gt;&lt;/b&gt;&lt;div&gt;&lt;span style=&quot;font-size: 15px;&quot;&gt;&lt;b&gt;Image stacking, Geometric and radiometric correction, image enhancement and clipping to study area&lt;/b&gt;&lt;/span&gt;&lt;/div&gt;" style="rounded=1;whiteSpace=wrap;html=1;fillColor=#f5f5f5;gradientColor=#b3b3b3;strokeColor=#666666;" vertex="1" parent="1">
          <mxGeometry x="100" y="249" width="220" height="120" as="geometry" />
        </mxCell>
        <mxCell id="uq58R6Lj1lEwLzRMBfiw-21" style="edgeStyle=orthogonalEdgeStyle;rounded=0;orthogonalLoop=1;jettySize=auto;html=1;exitX=0;exitY=0.5;exitDx=0;exitDy=0;" edge="1" parent="1" source="uq58R6Lj1lEwLzRMBfiw-11">
          <mxGeometry relative="1" as="geometry">
            <mxPoint x="730" y="249" as="targetPoint" />
          </mxGeometry>
        </mxCell>
        <mxCell id="uq58R6Lj1lEwLzRMBfiw-11" value="&lt;b&gt;&lt;font style=&quot;font-size: 15px;&quot;&gt;&lt;u&gt;Ground Truth&lt;/u&gt;&lt;/font&gt;&lt;/b&gt;&lt;div&gt;&lt;span style=&quot;font-size: 15px;&quot;&gt;&lt;b&gt;GPS data, Field survey,&lt;/b&gt;&lt;/span&gt;&lt;/div&gt;&lt;div&gt;&lt;span style=&quot;font-size: 15px;&quot;&gt;&lt;b&gt;Google Earth online&lt;/b&gt;&lt;/span&gt;&lt;/div&gt;" style="rounded=1;whiteSpace=wrap;html=1;fillColor=#f5f5f5;gradientColor=#b3b3b3;strokeColor=#666666;" vertex="1" parent="1">
          <mxGeometry x="780" y="204" width="250" height="90" as="geometry" />
        </mxCell>
        <mxCell id="uq58R6Lj1lEwLzRMBfiw-26" style="edgeStyle=orthogonalEdgeStyle;rounded=0;orthogonalLoop=1;jettySize=auto;html=1;exitX=0.5;exitY=1;exitDx=0;exitDy=0;exitPerimeter=0;entryX=0.5;entryY=0;entryDx=0;entryDy=0;" edge="1" parent="1" source="uq58R6Lj1lEwLzRMBfiw-13" target="uq58R6Lj1lEwLzRMBfiw-23">
          <mxGeometry relative="1" as="geometry" />
        </mxCell>
        <mxCell id="uq58R6Lj1lEwLzRMBfiw-30" style="edgeStyle=orthogonalEdgeStyle;rounded=0;orthogonalLoop=1;jettySize=auto;html=1;exitX=1;exitY=0.5;exitDx=0;exitDy=0;exitPerimeter=0;" edge="1" parent="1" source="uq58R6Lj1lEwLzRMBfiw-13">
          <mxGeometry relative="1" as="geometry">
            <mxPoint x="710" y="324" as="targetPoint" />
          </mxGeometry>
        </mxCell>
        <mxCell id="uq58R6Lj1lEwLzRMBfiw-13" value="&lt;span style=&quot;font-size: 15px;&quot;&gt;&lt;b&gt;&lt;u&gt;Question&lt;/u&gt;&lt;/b&gt;&lt;/span&gt;&lt;br&gt;&lt;div&gt;&lt;span style=&quot;font-size: 15px;&quot;&gt;&lt;b&gt;Is the situation&lt;/b&gt;&lt;/span&gt;&lt;/div&gt;&lt;div&gt;&lt;span style=&quot;font-size: 15px;&quot;&gt;&lt;b&gt;correct?&amp;nbsp;&lt;/b&gt;&lt;/span&gt;&lt;/div&gt;" style="strokeWidth=2;html=1;shape=mxgraph.flowchart.decision;whiteSpace=wrap;fillColor=#f5f5f5;gradientColor=#b3b3b3;strokeColor=#666666;" vertex="1" parent="1">
          <mxGeometry x="446.87" y="504" width="186.25" height="140" as="geometry" />
        </mxCell>
        <mxCell id="uq58R6Lj1lEwLzRMBfiw-15" value="" style="endArrow=none;html=1;rounded=0;" edge="1" parent="1">
          <mxGeometry width="50" height="50" relative="1" as="geometry">
            <mxPoint x="730" y="324" as="sourcePoint" />
            <mxPoint x="730" y="154" as="targetPoint" />
          </mxGeometry>
        </mxCell>
        <mxCell id="uq58R6Lj1lEwLzRMBfiw-16" value="" style="endArrow=classic;html=1;rounded=0;" edge="1" parent="1">
          <mxGeometry width="50" height="50" relative="1" as="geometry">
            <mxPoint x="730" y="324" as="sourcePoint" />
            <mxPoint x="690" y="324" as="targetPoint" />
          </mxGeometry>
        </mxCell>
        <mxCell id="uq58R6Lj1lEwLzRMBfiw-17" value="" style="endArrow=classic;html=1;rounded=0;" edge="1" parent="1">
          <mxGeometry width="50" height="50" relative="1" as="geometry">
            <mxPoint x="730" y="154" as="sourcePoint" />
            <mxPoint x="690" y="154" as="targetPoint" />
          </mxGeometry>
        </mxCell>
        <mxCell id="uq58R6Lj1lEwLzRMBfiw-22" value="&lt;span style=&quot;font-size: 15px;&quot;&gt;&lt;b&gt;Accuracy assessment&lt;/b&gt;&lt;/span&gt;" style="rounded=1;whiteSpace=wrap;html=1;fillColor=#f5f5f5;gradientColor=#b3b3b3;strokeColor=#666666;" vertex="1" parent="1">
          <mxGeometry x="405" y="404" width="270" height="60" as="geometry" />
        </mxCell>
        <mxCell id="uq58R6Lj1lEwLzRMBfiw-23" value="&lt;span style=&quot;font-size: 15px;&quot;&gt;&lt;b&gt;&lt;u&gt;Change detection analysis&lt;/u&gt;&lt;/b&gt;&lt;/span&gt;&lt;div&gt;&lt;span style=&quot;font-size: 15px;&quot;&gt;&lt;b&gt;1984 -2004, 2004-2014, 2014 -20204&lt;/b&gt;&lt;/span&gt;&lt;/div&gt;" style="rounded=1;whiteSpace=wrap;html=1;fillColor=#f5f5f5;gradientColor=#b3b3b3;strokeColor=#666666;" vertex="1" parent="1">
          <mxGeometry x="404.99" y="704" width="270" height="70" as="geometry" />
        </mxCell>
        <mxCell id="uq58R6Lj1lEwLzRMBfiw-25" style="edgeStyle=orthogonalEdgeStyle;rounded=0;orthogonalLoop=1;jettySize=auto;html=1;exitX=0.5;exitY=1;exitDx=0;exitDy=0;entryX=0.5;entryY=0;entryDx=0;entryDy=0;entryPerimeter=0;" edge="1" parent="1" source="uq58R6Lj1lEwLzRMBfiw-22" target="uq58R6Lj1lEwLzRMBfiw-13">
          <mxGeometry relative="1" as="geometry" />
        </mxCell>
        <mxCell id="uq58R6Lj1lEwLzRMBfiw-28" value="&lt;b&gt;&lt;font style=&quot;font-size: 14px;&quot;&gt;YES&lt;/font&gt;&lt;/b&gt;" style="text;html=1;align=center;verticalAlign=middle;resizable=0;points=[];autosize=1;strokeColor=none;fillColor=none;" vertex="1" parent="1">
          <mxGeometry x="540" y="654" width="50" height="30" as="geometry" />
        </mxCell>
        <mxCell id="uq58R6Lj1lEwLzRMBfiw-29" value="&lt;b&gt;&lt;font style=&quot;font-size: 14px;&quot;&gt;NO&lt;/font&gt;&lt;/b&gt;" style="text;html=1;align=center;verticalAlign=middle;resizable=0;points=[];autosize=1;strokeColor=none;fillColor=none;" vertex="1" parent="1">
          <mxGeometry x="650" y="544" width="40" height="30" as="geometry" />
        </mxCell>
      </root>
    </mxGraphModel>
  </diagram>
</mxfile>
